STARTFONT 2.1
COMMENT $XConsortium: luIS08.bdf,v 1.7 94/04/02 15:59:44 gildea Exp $
COMMENT  (c) Copyright Bigelow & Holmes 1986, 1985. Lucida is a registered
COMMENT  trademark of Bigelow & Holmes. See LEGAL NOTICE file for terms 
COMMENT  of the license. 
FONT -RFX-Serene-Medium-I-Normal-Sans-8-80-75-75-P-45-iso10646-0400
SIZE 8 72 72
FONTBOUNDINGBOX 15 11 -4 -3
STARTPROPERTIES 24
FONTNAME_REGISTRY ""
FOUNDRY "RFX"
FAMILY_NAME "Serene"
WEIGHT_NAME "Medium"
SLANT "I"
SETWIDTH_NAME "Normal"
ADD_STYLE_NAME "Sans"
PIXEL_SIZE 8
POINT_SIZE 80
RESOLUTION_X 75
RESOLUTION_Y 75
SPACING "P"
AVERAGE_WIDTH 45
CHARSET_REGISTRY "iso10646"
CHARSET_ENCODING "0400"
FONT_ASCENT 7
FONT_DESCENT 2
DEFAULT_CHAR 32
COPYRIGHT "Copyright Bigelow & Holmes 1986, 1985."
FACE_NAME "Lucida Sans Italic"
COPYRIGHT2 "Cyrillic glyphs copyright 2000 Dmitry Yu. Bolkhovityanov, bolkhov@inp.nsk.su"
SOURCEDATE "Sat Jul 22 12:55:29 2000"
PKGVERSION "1.1"
ASSEMBLER "cvtbdf.pl (Linux)"
ENDPROPERTIES
CHARS 305
STARTCHAR space
ENCODING 32
SWIDTH 316 0
DWIDTH 3 0
BBX 0 0 0 0
BITMAP
ENDCHAR
STARTCHAR exclam
ENCODING 33
SWIDTH 193 0
DWIDTH 3 0
BBX 2 6 1 0
BITMAP
40
40
40
40
80
80
ENDCHAR
STARTCHAR quotedbl
ENCODING 34
SWIDTH 361 0
DWIDTH 3 0
BBX 2 2 1 4
BITMAP
C0
C0
ENDCHAR
STARTCHAR numbersign
ENCODING 35
SWIDTH 633 0
DWIDTH 5 0
BBX 5 6 1 0
BITMAP
28
F8
50
F8
A0
E0
ENDCHAR
STARTCHAR dollar
ENCODING 36
SWIDTH 633 0
DWIDTH 5 0
BBX 4 7 1 -1
BITMAP
70
60
40
60
60
E0
40
ENDCHAR
STARTCHAR percent
ENCODING 37
SWIDTH 741 0
DWIDTH 6 0
BBX 6 6 1 0
BITMAP
6C
70
50
38
68
98
ENDCHAR
STARTCHAR ampersand
ENCODING 38
SWIDTH 701 0
DWIDTH 6 0
BBX 5 6 1 0
BITMAP
30
30
30
E8
90
F0
ENDCHAR
STARTCHAR quotesingle
ENCODING 39
SWIDTH 217 0
DWIDTH 2 0
BBX 1 2 1 4
BITMAP
80
80
ENDCHAR
STARTCHAR parenleft
ENCODING 40
SWIDTH 325 0
DWIDTH 3 0
BBX 3 8 1 -2
BITMAP
20
40
80
80
80
80
80
80
ENDCHAR
STARTCHAR parenright
ENCODING 41
SWIDTH 325 0
DWIDTH 3 0
BBX 3 8 0 -2
BITMAP
40
20
20
20
20
40
80
80
ENDCHAR
STARTCHAR asterisk
ENCODING 42
SWIDTH 470 0
DWIDTH 4 0
BBX 3 3 1 3
BITMAP
40
E0
C0
ENDCHAR
STARTCHAR plus
ENCODING 43
SWIDTH 633 0
DWIDTH 5 0
BBX 5 5 0 0
BITMAP
20
20
F8
20
20
ENDCHAR
STARTCHAR comma
ENCODING 44
SWIDTH 316 0
DWIDTH 3 0
BBX 1 3 1 -2
BITMAP
80
80
80
ENDCHAR
STARTCHAR minus
ENCODING 45
SWIDTH 633 0
DWIDTH 5 0
BBX 5 1 0 2
BITMAP
F8
ENDCHAR
STARTCHAR period
ENCODING 46
SWIDTH 316 0
DWIDTH 3 0
BBX 1 1 1 0
BITMAP
80
ENDCHAR
STARTCHAR slash
ENCODING 47
SWIDTH 482 0
DWIDTH 4 0
BBX 5 8 0 -2
BITMAP
08
10
10
20
20
40
80
80
ENDCHAR
STARTCHAR zero
ENCODING 48
SWIDTH 633 0
DWIDTH 5 0
BBX 4 6 1 0
BITMAP
70
50
90
90
90
60
ENDCHAR
STARTCHAR one
ENCODING 49
SWIDTH 633 0
DWIDTH 5 0
BBX 2 6 2 0
BITMAP
C0
40
40
80
80
80
ENDCHAR
STARTCHAR two
ENCODING 50
SWIDTH 633 0
DWIDTH 5 0
BBX 4 6 1 0
BITMAP
70
10
10
60
80
E0
ENDCHAR
STARTCHAR three
ENCODING 51
SWIDTH 633 0
DWIDTH 5 0
BBX 4 6 1 0
BITMAP
70
10
60
10
10
E0
ENDCHAR
STARTCHAR four
ENCODING 52
SWIDTH 633 0
DWIDTH 5 0
BBX 4 6 1 0
BITMAP
10
30
50
50
F0
20
ENDCHAR
STARTCHAR five
ENCODING 53
SWIDTH 633 0
DWIDTH 5 0
BBX 4 6 1 0
BITMAP
70
40
60
10
20
E0
ENDCHAR
STARTCHAR six
ENCODING 54
SWIDTH 633 0
DWIDTH 5 0
BBX 4 6 1 0
BITMAP
70
80
F0
90
90
60
ENDCHAR
STARTCHAR seven
ENCODING 55
SWIDTH 633 0
DWIDTH 5 0
BBX 4 6 1 0
BITMAP
70
30
20
40
80
80
ENDCHAR
STARTCHAR eight
ENCODING 56
SWIDTH 633 0
DWIDTH 5 0
BBX 4 6 1 0
BITMAP
70
50
60
E0
A0
E0
ENDCHAR
STARTCHAR nine
ENCODING 57
SWIDTH 633 0
DWIDTH 5 0
BBX 4 6 1 0
BITMAP
70
90
90
70
10
E0
ENDCHAR
STARTCHAR colon
ENCODING 58
SWIDTH 316 0
DWIDTH 3 0
BBX 2 4 1 0
BITMAP
40
00
00
80
ENDCHAR
STARTCHAR semicolon
ENCODING 59
SWIDTH 316 0
DWIDTH 3 0
BBX 2 6 1 -2
BITMAP
40
00
00
80
80
80
ENDCHAR
STARTCHAR less
ENCODING 60
SWIDTH 633 0
DWIDTH 5 0
BBX 5 5 1 0
BITMAP
08
30
C0
60
10
ENDCHAR
STARTCHAR equal
ENCODING 61
SWIDTH 633 0
DWIDTH 5 0
BBX 5 2 0 1
BITMAP
F8
F8
ENDCHAR
STARTCHAR greater
ENCODING 62
SWIDTH 633 0
DWIDTH 5 0
BBX 5 5 0 0
BITMAP
40
30
18
70
80
ENDCHAR
STARTCHAR question
ENCODING 63
SWIDTH 464 0
DWIDTH 4 0
BBX 3 6 1 0
BITMAP
E0
20
20
40
80
80
ENDCHAR
STARTCHAR at
ENCODING 64
SWIDTH 858 0
DWIDTH 7 0
BBX 6 6 1 0
BITMAP
38
5C
CC
DC
AC
70
ENDCHAR
STARTCHAR A
ENCODING 65
SWIDTH 687 0
DWIDTH 5 0
BBX 5 6 0 0
BITMAP
10
30
30
48
78
88
ENDCHAR
STARTCHAR B
ENCODING 66
SWIDTH 593 0
DWIDTH 5 0
BBX 4 6 1 0
BITMAP
70
50
60
90
90
E0
ENDCHAR
STARTCHAR C
ENCODING 67
SWIDTH 679 0
DWIDTH 5 0
BBX 5 6 1 0
BITMAP
38
40
80
80
80
70
ENDCHAR
STARTCHAR D
ENCODING 68
SWIDTH 743 0
DWIDTH 6 0
BBX 6 6 1 0
BITMAP
7C
44
44
44
88
F0
ENDCHAR
STARTCHAR E
ENCODING 69
SWIDTH 547 0
DWIDTH 4 0
BBX 4 6 1 0
BITMAP
70
40
60
80
80
E0
ENDCHAR
STARTCHAR F
ENCODING 70
SWIDTH 536 0
DWIDTH 4 0
BBX 4 6 1 0
BITMAP
70
40
40
E0
80
80
ENDCHAR
STARTCHAR G
ENCODING 71
SWIDTH 702 0
DWIDTH 6 0
BBX 5 6 1 0
BITMAP
38
40
80
90
90
70
ENDCHAR
STARTCHAR H
ENCODING 72
SWIDTH 735 0
DWIDTH 6 0
BBX 6 6 1 0
BITMAP
44
44
78
48
88
88
ENDCHAR
STARTCHAR I
ENCODING 73
SWIDTH 289 0
DWIDTH 2 0
BBX 2 6 1 0
BITMAP
40
40
40
80
80
80
ENDCHAR
STARTCHAR J
ENCODING 74
SWIDTH 408 0
DWIDTH 3 0
BBX 4 8 0 -2
BITMAP
10
10
10
10
20
20
20
C0
ENDCHAR
STARTCHAR K
ENCODING 75
SWIDTH 635 0
DWIDTH 5 0
BBX 5 6 1 0
BITMAP
48
50
60
A0
A0
90
ENDCHAR
STARTCHAR L
ENCODING 76
SWIDTH 545 0
DWIDTH 4 0
BBX 4 6 1 0
BITMAP
40
40
40
40
80
F0
ENDCHAR
STARTCHAR M
ENCODING 77
SWIDTH 828 0
DWIDTH 7 0
BBX 6 6 1 0
BITMAP
44
AC
B4
B8
A8
88
ENDCHAR
STARTCHAR N
ENCODING 78
SWIDTH 741 0
DWIDTH 6 0
BBX 6 6 1 0
BITMAP
44
64
A4
94
98
88
ENDCHAR
STARTCHAR O
ENCODING 79
SWIDTH 777 0
DWIDTH 6 0
BBX 6 6 1 0
BITMAP
38
4C
84
88
88
70
ENDCHAR
STARTCHAR P
ENCODING 80
SWIDTH 575 0
DWIDTH 5 0
BBX 4 6 1 0
BITMAP
70
50
50
E0
80
80
ENDCHAR
STARTCHAR Q
ENCODING 81
SWIDTH 777 0
DWIDTH 6 0
BBX 6 8 1 -2
BITMAP
38
4C
84
88
88
70
18
0C
ENDCHAR
STARTCHAR R
ENCODING 82
SWIDTH 632 0
DWIDTH 5 0
BBX 4 6 1 0
BITMAP
70
50
50
E0
A0
90
ENDCHAR
STARTCHAR S
ENCODING 83
SWIDTH 553 0
DWIDTH 4 0
BBX 4 6 1 0
BITMAP
70
40
40
30
10
E0
ENDCHAR
STARTCHAR T
ENCODING 84
SWIDTH 623 0
DWIDTH 5 0
BBX 5 6 1 0
BITMAP
F8
20
20
40
40
40
ENDCHAR
STARTCHAR U
ENCODING 85
SWIDTH 693 0
DWIDTH 6 0
BBX 5 6 1 0
BITMAP
48
88
88
88
90
F0
ENDCHAR
STARTCHAR V
ENCODING 86
SWIDTH 687 0
DWIDTH 5 0
BBX 5 6 1 0
BITMAP
88
90
90
A0
60
40
ENDCHAR
STARTCHAR W
ENCODING 87
SWIDTH 886 0
DWIDTH 7 0
BBX 7 6 1 0
BITMAP
92
B4
B4
98
D8
90
ENDCHAR
STARTCHAR X
ENCODING 88
SWIDTH 620 0
DWIDTH 5 0
BBX 6 7 0 0
BITMAP
40
24
28
10
30
50
88
ENDCHAR
STARTCHAR Y
ENCODING 89
SWIDTH 608 0
DWIDTH 5 0
BBX 5 6 1 0
BITMAP
88
50
60
40
40
40
ENDCHAR
STARTCHAR Z
ENCODING 90
SWIDTH 578 0
DWIDTH 5 0
BBX 5 6 0 0
BITMAP
78
10
20
20
40
F0
ENDCHAR
STARTCHAR bracketleft
ENCODING 91
SWIDTH 325 0
DWIDTH 3 0
BBX 3 8 0 -2
BITMAP
60
40
40
40
40
80
80
C0
ENDCHAR
STARTCHAR backslash
ENCODING 92
SWIDTH 482 0
DWIDTH 4 0
BBX 2 8 1 -2
BITMAP
80
80
80
40
40
40
40
40
ENDCHAR
STARTCHAR bracketright
ENCODING 93
SWIDTH 325 0
DWIDTH 3 0
BBX 3 8 0 -2
BITMAP
60
20
20
40
40
40
40
C0
ENDCHAR
STARTCHAR asciicircum
ENCODING 94
SWIDTH 633 0
DWIDTH 5 0
BBX 5 5 0 1
BITMAP
10
30
70
48
88
ENDCHAR
STARTCHAR underscore
ENCODING 95
SWIDTH 500 0
DWIDTH 4 0
BBX 3 1 0 -1
BITMAP
E0
ENDCHAR
STARTCHAR grave
ENCODING 96
SWIDTH 572 0
DWIDTH 5 0
BBX 1 1 3 5
BITMAP
80
ENDCHAR
STARTCHAR a
ENCODING 97
SWIDTH 608 0
DWIDTH 5 0
BBX 4 4 1 0
BITMAP
70
90
A0
E0
ENDCHAR
STARTCHAR b
ENCODING 98
SWIDTH 608 0
DWIDTH 5 0
BBX 4 6 1 0
BITMAP
40
40
70
D0
90
E0
ENDCHAR
STARTCHAR c
ENCODING 99
SWIDTH 503 0
DWIDTH 4 0
BBX 4 4 1 0
BITMAP
70
80
80
E0
ENDCHAR
STARTCHAR d
ENCODING 100
SWIDTH 608 0
DWIDTH 5 0
BBX 5 6 1 0
BITMAP
08
08
70
90
B0
F0
ENDCHAR
STARTCHAR e
ENCODING 101
SWIDTH 529 0
DWIDTH 4 0
BBX 3 4 1 0
BITMAP
60
A0
E0
E0
ENDCHAR
STARTCHAR f
ENCODING 102
SWIDTH 383 0
DWIDTH 3 0
BBX 4 8 1 -2
BITMAP
30
40
E0
40
80
80
80
80
ENDCHAR
STARTCHAR g
ENCODING 103
SWIDTH 608 0
DWIDTH 5 0
BBX 5 6 0 -2
BITMAP
38
48
90
70
10
E0
ENDCHAR
STARTCHAR h
ENCODING 104
SWIDTH 620 0
DWIDTH 5 0
BBX 4 6 1 0
BITMAP
40
40
70
D0
D0
90
ENDCHAR
STARTCHAR i
ENCODING 105
SWIDTH 289 0
DWIDTH 2 0
BBX 2 6 1 0
BITMAP
40
00
40
80
80
80
ENDCHAR
STARTCHAR j
ENCODING 106
SWIDTH 325 0
DWIDTH 3 0
BBX 4 8 0 -2
BITMAP
10
00
10
20
20
20
20
C0
ENDCHAR
STARTCHAR k
ENCODING 107
SWIDTH 572 0
DWIDTH 5 0
BBX 4 6 1 0
BITMAP
40
40
50
A0
E0
B0
ENDCHAR
STARTCHAR l
ENCODING 108
SWIDTH 289 0
DWIDTH 2 0
BBX 2 6 1 0
BITMAP
40
40
80
80
80
80
ENDCHAR
STARTCHAR m
ENCODING 109
SWIDTH 934 0
DWIDTH 7 0
BBX 7 4 1 0
BITMAP
76
7A
D2
92
ENDCHAR
STARTCHAR n
ENCODING 110
SWIDTH 620 0
DWIDTH 5 0
BBX 4 4 1 0
BITMAP
70
50
D0
90
ENDCHAR
STARTCHAR o
ENCODING 111
SWIDTH 566 0
DWIDTH 5 0
BBX 4 4 1 0
BITMAP
70
90
90
E0
ENDCHAR
STARTCHAR p
ENCODING 112
SWIDTH 608 0
DWIDTH 5 0
BBX 5 6 0 -2
BITMAP
78
68
48
70
80
80
ENDCHAR
STARTCHAR q
ENCODING 113
SWIDTH 608 0
DWIDTH 5 0
BBX 4 6 1 -2
BITMAP
70
90
B0
E0
20
20
ENDCHAR
STARTCHAR r
ENCODING 114
SWIDTH 478 0
DWIDTH 4 0
BBX 4 4 1 0
BITMAP
70
40
80
80
ENDCHAR
STARTCHAR s
ENCODING 115
SWIDTH 489 0
DWIDTH 4 0
BBX 3 4 1 0
BITMAP
60
40
20
C0
ENDCHAR
STARTCHAR t
ENCODING 116
SWIDTH 383 0
DWIDTH 3 0
BBX 3 6 1 0
BITMAP
40
40
E0
80
80
C0
ENDCHAR
STARTCHAR u
ENCODING 117
SWIDTH 620 0
DWIDTH 5 0
BBX 4 4 1 0
BITMAP
D0
90
A0
E0
ENDCHAR
STARTCHAR v
ENCODING 118
SWIDTH 545 0
DWIDTH 4 0
BBX 4 4 1 0
BITMAP
90
A0
A0
C0
ENDCHAR
STARTCHAR w
ENCODING 119
SWIDTH 795 0
DWIDTH 6 0
BBX 6 4 1 0
BITMAP
A4
B8
D8
D0
ENDCHAR
STARTCHAR x
ENCODING 120
SWIDTH 541 0
DWIDTH 4 0
BBX 5 5 0 -1
BITMAP
48
30
20
50
80
ENDCHAR
STARTCHAR y
ENCODING 121
SWIDTH 548 0
DWIDTH 4 0
BBX 4 7 1 -3
BITMAP
90
A0
60
40
40
40
80
ENDCHAR
STARTCHAR z
ENCODING 122
SWIDTH 536 0
DWIDTH 4 0
BBX 4 4 1 0
BITMAP
70
20
40
F0
ENDCHAR
STARTCHAR braceleft
ENCODING 123
SWIDTH 325 0
DWIDTH 3 0
BBX 3 8 1 -2
BITMAP
60
40
40
40
80
80
80
80
ENDCHAR
STARTCHAR bar
ENCODING 124
SWIDTH 233 0
DWIDTH 2 0
BBX 2 8 0 -2
BITMAP
40
40
40
80
80
80
80
80
ENDCHAR
STARTCHAR braceright
ENCODING 125
SWIDTH 325 0
DWIDTH 3 0
BBX 3 8 0 -2
BITMAP
60
20
60
20
40
40
40
80
ENDCHAR
STARTCHAR asciitilde
ENCODING 126
SWIDTH 633 0
DWIDTH 5 0
BBX 5 2 0 1
BITMAP
68
B0
ENDCHAR
STARTCHAR space
ENCODING 160
SWIDTH 316 0
DWIDTH 3 0
BBX 0 0 0 0
BITMAP
ENDCHAR
STARTCHAR exclamdown
ENCODING 161
SWIDTH 193 0
DWIDTH 3 0
BBX 2 6 1 -2
BITMAP
40
00
C0
80
80
80
ENDCHAR
STARTCHAR cent
ENCODING 162
SWIDTH 633 0
DWIDTH 5 0
BBX 4 6 1 0
BITMAP
10
70
A0
A0
F0
40
ENDCHAR
STARTCHAR sterling
ENCODING 163
SWIDTH 633 0
DWIDTH 5 0
BBX 4 6 1 0
BITMAP
30
40
60
40
40
E0
ENDCHAR
STARTCHAR currency
ENCODING 164
SWIDTH 633 0
DWIDTH 5 0
BBX 6 6 0 0
BITMAP
44
78
50
50
70
88
ENDCHAR
STARTCHAR yen
ENCODING 165
SWIDTH 633 0
DWIDTH 5 0
BBX 5 6 1 0
BITMAP
88
50
60
F0
E0
40
ENDCHAR
STARTCHAR brokenbar
ENCODING 166
SWIDTH 233 0
DWIDTH 2 0
BBX 2 8 0 -2
BITMAP
40
40
40
00
00
80
80
80
ENDCHAR
STARTCHAR section
ENCODING 167
SWIDTH 633 0
DWIDTH 5 0
BBX 4 8 1 -2
BITMAP
30
40
60
50
50
20
10
E0
ENDCHAR
STARTCHAR dieresis
ENCODING 168
SWIDTH 566 0
DWIDTH 5 0
BBX 2 1 2 5
BITMAP
C0
ENDCHAR
STARTCHAR copyright
ENCODING 169
SWIDTH 858 0
DWIDTH 7 0
BBX 6 6 1 0
BITMAP
78
BC
A4
C4
B4
78
ENDCHAR
STARTCHAR ordfeminine
ENCODING 170
SWIDTH 392 0
DWIDTH 3 0
BBX 3 4 1 2
BITMAP
60
A0
E0
A0
ENDCHAR
STARTCHAR guillemotleft
ENCODING 171
SWIDTH 527 0
DWIDTH 4 0
BBX 4 4 1 0
BITMAP
50
E0
A0
60
ENDCHAR
STARTCHAR logicalnot
ENCODING 172
SWIDTH 633 0
DWIDTH 5 0
BBX 5 2 1 1
BITMAP
F8
08
ENDCHAR
STARTCHAR hyphen
ENCODING 173
SWIDTH 313 0
DWIDTH 3 0
BBX 2 1 1 2
BITMAP
C0
ENDCHAR
STARTCHAR registered
ENCODING 174
SWIDTH 633 0
DWIDTH 5 0
BBX 2 4 2 2
BITMAP
80
C0
C0
80
ENDCHAR
STARTCHAR macron
ENCODING 175
SWIDTH 566 0
DWIDTH 5 0
BBX 2 1 2 5
BITMAP
C0
ENDCHAR
STARTCHAR degree
ENCODING 176
SWIDTH 269 0
DWIDTH 2 0
BBX 1 2 1 4
BITMAP
80
80
ENDCHAR
STARTCHAR plusminus
ENCODING 177
SWIDTH 633 0
DWIDTH 5 0
BBX 5 5 0 0
BITMAP
10
F8
20
00
F8
ENDCHAR
STARTCHAR twosuperior
ENCODING 178
SWIDTH 392 0
DWIDTH 3 0
BBX 3 3 -3 3
BITMAP
60
60
C0
ENDCHAR
STARTCHAR threesuperior
ENCODING 179
SWIDTH 392 0
DWIDTH 3 0
BBX 2 3 -4 3
BITMAP
40
40
C0
ENDCHAR
STARTCHAR acute
ENCODING 180
SWIDTH 566 0
DWIDTH 5 0
BBX 2 1 3 5
BITMAP
C0
ENDCHAR
STARTCHAR mu
ENCODING 181
SWIDTH 627 0
DWIDTH 5 0
BBX 5 6 0 -2
BITMAP
48
48
70
F0
80
80
ENDCHAR
STARTCHAR paragraph
ENCODING 182
SWIDTH 633 0
DWIDTH 5 0
BBX 4 8 1 -2
BITMAP
F0
F0
D0
20
60
60
60
60
ENDCHAR
STARTCHAR periodcentered
ENCODING 183
SWIDTH 316 0
DWIDTH 5 0
BBX 1 1 2 2
BITMAP
80
ENDCHAR
STARTCHAR cedilla
ENCODING 184
SWIDTH 566 0
DWIDTH 5 0
BBX 1 2 2 -2
BITMAP
80
80
ENDCHAR
STARTCHAR onesuperior
ENCODING 185
SWIDTH 392 0
DWIDTH 3 0
BBX 1 3 -4 3
BITMAP
80
80
80
ENDCHAR
STARTCHAR ordmasculine
ENCODING 186
SWIDTH 392 0
DWIDTH 3 0
BBX 3 4 1 2
BITMAP
60
A0
A0
C0
ENDCHAR
STARTCHAR guillemotright
ENCODING 187
SWIDTH 527 0
DWIDTH 4 0
BBX 4 4 0 0
BITMAP
60
50
70
A0
ENDCHAR
STARTCHAR onequarter
ENCODING 188
SWIDTH 865 0
DWIDTH 7 0
BBX 6 6 3 0
BITMAP
84
88
90
2C
5C
88
ENDCHAR
STARTCHAR onehalf
ENCODING 189
SWIDTH 865 0
DWIDTH 7 0
BBX 6 6 3 0
BITMAP
84
88
90
2C
4C
98
ENDCHAR
STARTCHAR threequarters
ENCODING 190
SWIDTH 865 0
DWIDTH 7 0
BBX 7 6 4 0
BITMAP
42
44
C8
16
2E
44
ENDCHAR
STARTCHAR questiondown
ENCODING 191
SWIDTH 464 0
DWIDTH 4 0
BBX 3 6 0 -2
BITMAP
20
20
20
C0
80
E0
ENDCHAR
STARTCHAR Agrave
ENCODING 192
SWIDTH 687 0
DWIDTH 5 0
BBX 5 7 0 0
BITMAP
10
10
30
30
48
78
88
ENDCHAR
STARTCHAR Aacute
ENCODING 193
SWIDTH 687 0
DWIDTH 5 0
BBX 5 7 0 0
BITMAP
18
10
30
30
48
78
88
ENDCHAR
STARTCHAR Acircumflex
ENCODING 194
SWIDTH 687 0
DWIDTH 5 0
BBX 5 7 0 0
BITMAP
38
10
30
30
48
78
88
ENDCHAR
STARTCHAR Atilde
ENCODING 195
SWIDTH 687 0
DWIDTH 5 0
BBX 5 7 0 0
BITMAP
38
10
30
30
48
78
88
ENDCHAR
STARTCHAR Adieresis
ENCODING 196
SWIDTH 687 0
DWIDTH 5 0
BBX 5 7 0 0
BITMAP
18
10
30
30
48
78
88
ENDCHAR
STARTCHAR Aring
ENCODING 197
SWIDTH 687 0
DWIDTH 5 0
BBX 5 8 0 0
BITMAP
10
28
10
30
30
48
78
88
ENDCHAR
STARTCHAR AE
ENCODING 198
SWIDTH 893 0
DWIDTH 7 0
BBX 8 6 0 0
BITMAP
0F
18
18
2E
78
8E
ENDCHAR
STARTCHAR Ccedilla
ENCODING 199
SWIDTH 679 0
DWIDTH 5 0
BBX 5 8 1 -2
BITMAP
38
40
80
80
80
70
40
40
ENDCHAR
STARTCHAR Egrave
ENCODING 200
SWIDTH 547 0
DWIDTH 4 0
BBX 4 7 1 0
BITMAP
20
70
40
60
80
80
E0
ENDCHAR
STARTCHAR Eacute
ENCODING 201
SWIDTH 547 0
DWIDTH 4 0
BBX 4 7 1 0
BITMAP
20
70
40
60
80
80
E0
ENDCHAR
STARTCHAR Ecircumflex
ENCODING 202
SWIDTH 547 0
DWIDTH 4 0
BBX 4 7 1 0
BITMAP
50
70
40
60
80
80
E0
ENDCHAR
STARTCHAR Edieresis
ENCODING 203
SWIDTH 547 0
DWIDTH 4 0
BBX 4 7 1 0
BITMAP
60
70
40
60
80
80
E0
ENDCHAR
STARTCHAR Igrave
ENCODING 204
SWIDTH 289 0
DWIDTH 2 0
BBX 2 7 1 0
BITMAP
40
40
40
40
80
80
80
ENDCHAR
STARTCHAR Iacute
ENCODING 205
SWIDTH 289 0
DWIDTH 2 0
BBX 3 7 1 0
BITMAP
60
40
40
40
80
80
80
ENDCHAR
STARTCHAR Icircumflex
ENCODING 206
SWIDTH 289 0
DWIDTH 2 0
BBX 3 7 1 0
BITMAP
E0
40
40
40
80
80
80
ENDCHAR
STARTCHAR Idieresis
ENCODING 207
SWIDTH 289 0
DWIDTH 2 0
BBX 3 7 1 0
BITMAP
60
40
40
40
80
80
80
ENDCHAR
STARTCHAR Eth
ENCODING 208
SWIDTH 743 0
DWIDTH 6 0
BBX 6 6 0 0
BITMAP
7C
44
E4
44
48
F0
ENDCHAR
STARTCHAR Ntilde
ENCODING 209
SWIDTH 741 0
DWIDTH 6 0
BBX 6 7 1 0
BITMAP
38
44
64
A4
94
98
88
ENDCHAR
STARTCHAR Ograve
ENCODING 210
SWIDTH 777 0
DWIDTH 6 0
BBX 6 7 1 0
BITMAP
10
38
4C
84
88
88
70
ENDCHAR
STARTCHAR Oacute
ENCODING 211
SWIDTH 777 0
DWIDTH 6 0
BBX 6 7 1 0
BITMAP
10
38
4C
84
88
88
70
ENDCHAR
STARTCHAR Ocircumflex
ENCODING 212
SWIDTH 777 0
DWIDTH 6 0
BBX 6 7 1 0
BITMAP
28
38
4C
84
88
88
70
ENDCHAR
STARTCHAR Otilde
ENCODING 213
SWIDTH 777 0
DWIDTH 6 0
BBX 6 7 1 0
BITMAP
38
38
4C
84
88
88
70
ENDCHAR
STARTCHAR Odieresis
ENCODING 214
SWIDTH 777 0
DWIDTH 6 0
BBX 6 7 1 0
BITMAP
30
38
4C
84
88
88
70
ENDCHAR
STARTCHAR multiply
ENCODING 215
SWIDTH 633 0
DWIDTH 5 0
BBX 5 5 0 0
BITMAP
48
50
20
50
90
ENDCHAR
STARTCHAR Oslash
ENCODING 216
SWIDTH 777 0
DWIDTH 6 0
BBX 7 6 1 0
BITMAP
3E
4C
94
A8
88
F0
ENDCHAR
STARTCHAR Ugrave
ENCODING 217
SWIDTH 693 0
DWIDTH 6 0
BBX 5 7 1 0
BITMAP
20
48
88
88
88
90
F0
ENDCHAR
STARTCHAR Uacute
ENCODING 218
SWIDTH 693 0
DWIDTH 6 0
BBX 5 7 1 0
BITMAP
30
48
88
88
88
90
F0
ENDCHAR
STARTCHAR Ucircumflex
ENCODING 219
SWIDTH 693 0
DWIDTH 6 0
BBX 5 7 1 0
BITMAP
70
48
88
88
88
90
F0
ENDCHAR
STARTCHAR Udieresis
ENCODING 220
SWIDTH 693 0
DWIDTH 6 0
BBX 5 7 1 0
BITMAP
30
48
88
88
88
90
F0
ENDCHAR
STARTCHAR Yacute
ENCODING 221
SWIDTH 608 0
DWIDTH 5 0
BBX 5 7 1 0
BITMAP
30
88
50
60
40
40
40
ENDCHAR
STARTCHAR Thorn
ENCODING 222
SWIDTH 575 0
DWIDTH 5 0
BBX 4 6 1 0
BITMAP
40
70
50
90
E0
80
ENDCHAR
STARTCHAR germandbls
ENCODING 223
SWIDTH 595 0
DWIDTH 5 0
BBX 4 8 1 -2
BITMAP
30
50
60
60
90
B0
80
80
ENDCHAR
STARTCHAR agrave
ENCODING 224
SWIDTH 608 0
DWIDTH 5 0
BBX 4 5 1 0
BITMAP
20
70
90
A0
E0
ENDCHAR
STARTCHAR aacute
ENCODING 225
SWIDTH 608 0
DWIDTH 5 0
BBX 4 5 1 0
BITMAP
20
70
90
A0
E0
ENDCHAR
STARTCHAR acircumflex
ENCODING 226
SWIDTH 608 0
DWIDTH 5 0
BBX 4 5 1 0
BITMAP
50
70
90
A0
E0
ENDCHAR
STARTCHAR atilde
ENCODING 227
SWIDTH 608 0
DWIDTH 5 0
BBX 4 5 1 0
BITMAP
70
70
90
A0
E0
ENDCHAR
STARTCHAR adieresis
ENCODING 228
SWIDTH 608 0
DWIDTH 5 0
BBX 4 5 1 0
BITMAP
30
70
90
A0
E0
ENDCHAR
STARTCHAR aring
ENCODING 229
SWIDTH 608 0
DWIDTH 5 0
BBX 4 6 1 0
BITMAP
20
50
70
90
A0
E0
ENDCHAR
STARTCHAR ae
ENCODING 230
SWIDTH 893 0
DWIDTH 7 0
BBX 6 4 1 0
BITMAP
7C
94
BC
DC
ENDCHAR
STARTCHAR ccedilla
ENCODING 231
SWIDTH 503 0
DWIDTH 4 0
BBX 4 6 1 -2
BITMAP
70
80
80
E0
40
40
ENDCHAR
STARTCHAR egrave
ENCODING 232
SWIDTH 529 0
DWIDTH 4 0
BBX 3 5 1 0
BITMAP
20
60
A0
E0
E0
ENDCHAR
STARTCHAR eacute
ENCODING 233
SWIDTH 529 0
DWIDTH 4 0
BBX 4 5 1 0
BITMAP
30
60
A0
E0
E0
ENDCHAR
STARTCHAR ecircumflex
ENCODING 234
SWIDTH 529 0
DWIDTH 4 0
BBX 4 5 1 0
BITMAP
70
60
A0
E0
E0
ENDCHAR
STARTCHAR edieresis
ENCODING 235
SWIDTH 529 0
DWIDTH 4 0
BBX 4 5 1 0
BITMAP
30
60
A0
E0
E0
ENDCHAR
STARTCHAR igrave
ENCODING 236
SWIDTH 289 0
DWIDTH 2 0
BBX 2 5 1 0
BITMAP
40
40
40
80
80
ENDCHAR
STARTCHAR iacute
ENCODING 237
SWIDTH 289 0
DWIDTH 2 0
BBX 3 5 1 0
BITMAP
60
40
40
80
80
ENDCHAR
STARTCHAR icircumflex
ENCODING 238
SWIDTH 289 0
DWIDTH 2 0
BBX 3 5 1 0
BITMAP
E0
40
40
80
80
ENDCHAR
STARTCHAR idieresis
ENCODING 239
SWIDTH 289 0
DWIDTH 2 0
BBX 3 5 1 0
BITMAP
60
40
40
80
80
ENDCHAR
STARTCHAR eth
ENCODING 240
SWIDTH 556 0
DWIDTH 4 0
BBX 4 6 1 0
BITMAP
70
70
70
90
90
E0
ENDCHAR
STARTCHAR ntilde
ENCODING 241
SWIDTH 620 0
DWIDTH 5 0
BBX 4 5 1 0
BITMAP
70
70
50
D0
90
ENDCHAR
STARTCHAR ograve
ENCODING 242
SWIDTH 566 0
DWIDTH 5 0
BBX 4 5 1 0
BITMAP
20
70
90
90
E0
ENDCHAR
STARTCHAR oacute
ENCODING 243
SWIDTH 566 0
DWIDTH 5 0
BBX 4 5 1 0
BITMAP
20
70
90
90
E0
ENDCHAR
STARTCHAR ocircumflex
ENCODING 244
SWIDTH 566 0
DWIDTH 5 0
BBX 4 5 1 0
BITMAP
50
70
90
90
E0
ENDCHAR
STARTCHAR otilde
ENCODING 245
SWIDTH 566 0
DWIDTH 5 0
BBX 4 5 1 0
BITMAP
70
70
90
90
E0
ENDCHAR
STARTCHAR odieresis
ENCODING 246
SWIDTH 566 0
DWIDTH 5 0
BBX 4 5 1 0
BITMAP
30
70
90
90
E0
ENDCHAR
STARTCHAR divide
ENCODING 247
SWIDTH 633 0
DWIDTH 5 0
BBX 5 4 0 0
BITMAP
20
00
F8
20
ENDCHAR
STARTCHAR oslash
ENCODING 248
SWIDTH 566 0
DWIDTH 5 0
BBX 5 4 1 0
BITMAP
78
90
90
E0
ENDCHAR
STARTCHAR ugrave
ENCODING 249
SWIDTH 620 0
DWIDTH 5 0
BBX 4 5 1 0
BITMAP
20
D0
90
A0
E0
ENDCHAR
STARTCHAR uacute
ENCODING 250
SWIDTH 620 0
DWIDTH 5 0
BBX 4 5 1 0
BITMAP
30
D0
90
A0
E0
ENDCHAR
STARTCHAR ucircumflex
ENCODING 251
SWIDTH 620 0
DWIDTH 5 0
BBX 4 5 1 0
BITMAP
70
D0
90
A0
E0
ENDCHAR
STARTCHAR udieresis
ENCODING 252
SWIDTH 620 0
DWIDTH 5 0
BBX 4 5 1 0
BITMAP
30
D0
90
A0
E0
ENDCHAR
STARTCHAR yacute
ENCODING 253
SWIDTH 548 0
DWIDTH 4 0
BBX 4 8 1 -3
BITMAP
30
90
A0
60
40
40
40
80
ENDCHAR
STARTCHAR thorn
ENCODING 254
SWIDTH 608 0
DWIDTH 5 0
BBX 5 8 0 -2
BITMAP
40
40
78
68
48
F0
80
80
ENDCHAR
STARTCHAR ydieresis
ENCODING 255
SWIDTH 548 0
DWIDTH 4 0
BBX 4 8 1 -3
BITMAP
60
90
A0
60
40
40
40
80
ENDCHAR
STARTCHAR uni0400
ENCODING 1024
SWIDTH 547 0
DWIDTH 4 0
BBX 4 7 1 0
BITMAP
20
70
40
60
80
80
E0
ENDCHAR
STARTCHAR afii10023
ENCODING 1025
SWIDTH 500 0
DWIDTH 4 0
BBX 4 7 1 0
BITMAP
50
70
40
60
80
80
E0
ENDCHAR
STARTCHAR afii10051
ENCODING 1026
SWIDTH 875 0
DWIDTH 7 0
BBX 6 6 1 0
BITMAP
F8
20
38
24
44
58
ENDCHAR
STARTCHAR afii10052
ENCODING 1027
SWIDTH 500 0
DWIDTH 4 0
BBX 4 7 1 0
BITMAP
20
70
40
40
80
80
80
ENDCHAR
STARTCHAR afii10053
ENCODING 1028
SWIDTH 625 0
DWIDTH 5 0
BBX 5 6 1 0
BITMAP
38
40
E0
80
80
70
ENDCHAR
STARTCHAR afii10054
ENCODING 1029
SWIDTH 553 0
DWIDTH 4 0
BBX 4 6 1 0
BITMAP
70
40
40
30
10
E0
ENDCHAR
STARTCHAR afii10055
ENCODING 1030
SWIDTH 289 0
DWIDTH 2 0
BBX 2 6 1 0
BITMAP
40
40
40
80
80
80
ENDCHAR
STARTCHAR afii10056
ENCODING 1031
SWIDTH 250 0
DWIDTH 2 0
BBX 3 7 1 0
BITMAP
A0
40
40
40
80
80
80
ENDCHAR
STARTCHAR afii10057
ENCODING 1032
SWIDTH 408 0
DWIDTH 3 0
BBX 4 8 0 -2
BITMAP
10
10
10
10
20
20
20
C0
ENDCHAR
STARTCHAR afii10058
ENCODING 1033
SWIDTH 1125 0
DWIDTH 9 0
BBX 9 6 0 0
BITMAP
1E00
1200
1700
2480
4480
8700
ENDCHAR
STARTCHAR afii10059
ENCODING 1034
SWIDTH 1125 0
DWIDTH 9 0
BBX 8 6 1 0
BITMAP
44
44
7E
49
89
8E
ENDCHAR
STARTCHAR afii10060
ENCODING 1035
SWIDTH 875 0
DWIDTH 7 0
BBX 6 6 1 0
BITMAP
F8
20
38
24
44
44
ENDCHAR
STARTCHAR afii10061
ENCODING 1036
SWIDTH 625 0
DWIDTH 5 0
BBX 5 7 1 0
BITMAP
30
48
50
60
A0
A0
90
ENDCHAR
STARTCHAR afii10062
ENCODING 1038
SWIDTH 625 0
DWIDTH 5 0
BBX 5 7 1 0
BITMAP
30
88
90
50
20
40
80
ENDCHAR
STARTCHAR afii10145
ENCODING 1039
SWIDTH 750 0
DWIDTH 6 0
BBX 6 7 1 -1
BITMAP
44
44
48
88
88
F8
20
ENDCHAR
STARTCHAR afii10017
ENCODING 1040
SWIDTH 625 0
DWIDTH 5 0
BBX 5 6 0 0
BITMAP
10
30
30
48
78
88
ENDCHAR
STARTCHAR afii10018
ENCODING 1041
SWIDTH 625 0
DWIDTH 5 0
BBX 5 6 1 0
BITMAP
78
40
60
90
90
E0
ENDCHAR
STARTCHAR afii10019
ENCODING 1042
SWIDTH 625 0
DWIDTH 5 0
BBX 4 6 1 0
BITMAP
70
50
60
90
90
E0
ENDCHAR
STARTCHAR afii10020
ENCODING 1043
SWIDTH 500 0
DWIDTH 4 0
BBX 4 6 1 0
BITMAP
70
40
40
80
80
80
ENDCHAR
STARTCHAR afii10021
ENCODING 1044
SWIDTH 750 0
DWIDTH 6 0
BBX 7 7 0 -1
BITMAP
1E
12
14
24
44
FE
82
ENDCHAR
STARTCHAR afii10022
ENCODING 1045
SWIDTH 500 0
DWIDTH 4 0
BBX 4 6 1 0
BITMAP
70
40
60
80
80
E0
ENDCHAR
STARTCHAR afii10024
ENCODING 1046
SWIDTH 875 0
DWIDTH 7 0
BBX 8 6 0 0
BITMAP
49
2A
3C
54
54
92
ENDCHAR
STARTCHAR afii10025
ENCODING 1047
SWIDTH 625 0
DWIDTH 5 0
BBX 4 6 1 0
BITMAP
60
10
60
10
10
E0
ENDCHAR
STARTCHAR afii10026
ENCODING 1048
SWIDTH 750 0
DWIDTH 6 0
BBX 6 6 1 0
BITMAP
44
4C
58
A8
C8
88
ENDCHAR
STARTCHAR afii10027
ENCODING 1049
SWIDTH 750 0
DWIDTH 6 0
BBX 6 7 1 0
BITMAP
18
44
4C
58
A8
C8
88
ENDCHAR
STARTCHAR afii10028
ENCODING 1050
SWIDTH 625 0
DWIDTH 5 0
BBX 5 6 1 0
BITMAP
48
50
60
A0
A0
90
ENDCHAR
STARTCHAR afii10029
ENCODING 1051
SWIDTH 750 0
DWIDTH 6 0
BBX 7 6 0 0
BITMAP
1E
12
14
24
44
84
ENDCHAR
STARTCHAR afii10030
ENCODING 1052
SWIDTH 875 0
DWIDTH 7 0
BBX 6 6 1 0
BITMAP
44
6C
B4
B8
A8
88
ENDCHAR
STARTCHAR afii10031
ENCODING 1053
SWIDTH 750 0
DWIDTH 6 0
BBX 6 6 1 0
BITMAP
44
44
78
48
88
88
ENDCHAR
STARTCHAR afii10032
ENCODING 1054
SWIDTH 750 0
DWIDTH 6 0
BBX 6 6 1 0
BITMAP
38
4C
84
88
88
70
ENDCHAR
STARTCHAR afii10033
ENCODING 1055
SWIDTH 750 0
DWIDTH 6 0
BBX 6 6 1 0
BITMAP
7C
44
48
88
88
88
ENDCHAR
STARTCHAR afii10034
ENCODING 1056
SWIDTH 625 0
DWIDTH 5 0
BBX 4 6 1 0
BITMAP
70
50
50
E0
80
80
ENDCHAR
STARTCHAR afii10035
ENCODING 1057
SWIDTH 625 0
DWIDTH 5 0
BBX 5 6 1 0
BITMAP
38
40
80
80
80
70
ENDCHAR
STARTCHAR afii10036
ENCODING 1058
SWIDTH 625 0
DWIDTH 5 0
BBX 5 6 1 0
BITMAP
F8
20
20
40
40
40
ENDCHAR
STARTCHAR afii10037
ENCODING 1059
SWIDTH 625 0
DWIDTH 5 0
BBX 5 6 1 0
BITMAP
88
90
50
20
40
80
ENDCHAR
STARTCHAR afii10038
ENCODING 1060
SWIDTH 875 0
DWIDTH 7 0
BBX 6 6 1 0
BITMAP
10
78
94
A4
78
20
ENDCHAR
STARTCHAR afii10039
ENCODING 1061
SWIDTH 625 0
DWIDTH 5 0
BBX 6 6 0 0
BITMAP
24
28
10
30
50
88
ENDCHAR
STARTCHAR afii10040
ENCODING 1062
SWIDTH 750 0
DWIDTH 6 0
BBX 6 7 1 -1
BITMAP
44
44
48
88
88
FC
08
ENDCHAR
STARTCHAR afii10041
ENCODING 1063
SWIDTH 750 0
DWIDTH 6 0
BBX 5 6 2 0
BITMAP
88
88
90
70
10
10
ENDCHAR
STARTCHAR afii10042
ENCODING 1064
SWIDTH 875 0
DWIDTH 7 0
BBX 6 6 1 0
BITMAP
54
54
54
A8
A8
F8
ENDCHAR
STARTCHAR afii10043
ENCODING 1065
SWIDTH 875 0
DWIDTH 7 0
BBX 6 7 1 -1
BITMAP
54
54
54
A8
A8
FC
08
ENDCHAR
STARTCHAR afii10044
ENCODING 1066
SWIDTH 625 0
DWIDTH 5 0
BBX 4 6 1 0
BITMAP
C0
40
60
90
90
E0
ENDCHAR
STARTCHAR afii10045
ENCODING 1067
SWIDTH 875 0
DWIDTH 7 0
BBX 7 6 1 0
BITMAP
42
42
64
94
94
E4
ENDCHAR
STARTCHAR afii10046
ENCODING 1068
SWIDTH 625 0
DWIDTH 5 0
BBX 4 6 1 0
BITMAP
40
40
60
90
90
E0
ENDCHAR
STARTCHAR afii10047
ENCODING 1069
SWIDTH 625 0
DWIDTH 5 0
BBX 5 6 0 0
BITMAP
70
08
38
10
10
E0
ENDCHAR
STARTCHAR afii10048
ENCODING 1070
SWIDTH 1000 0
DWIDTH 8 0
BBX 8 6 1 0
BITMAP
4E
53
61
A2
A2
9C
ENDCHAR
STARTCHAR afii10049
ENCODING 1071
SWIDTH 625 0
DWIDTH 5 0
BBX 5 6 0 0
BITMAP
38
48
48
30
50
90
ENDCHAR
STARTCHAR afii10065
ENCODING 1072
SWIDTH 625 0
DWIDTH 5 0
BBX 4 4 1 0
BITMAP
70
90
A0
E0
ENDCHAR
STARTCHAR afii10066
ENCODING 1073
SWIDTH 625 0
DWIDTH 5 0
BBX 5 6 1 0
BITMAP
18
20
70
90
90
E0
ENDCHAR
STARTCHAR afii10067
ENCODING 1074
SWIDTH 625 0
DWIDTH 5 0
BBX 5 6 1 0
BITMAP
30
48
50
90
90
E0
ENDCHAR
STARTCHAR afii10068
ENCODING 1075
SWIDTH 500 0
DWIDTH 4 0
BBX 3 4 1 0
BITMAP
40
20
C0
E0
ENDCHAR
STARTCHAR afii10069
ENCODING 1076
SWIDTH 625 0
DWIDTH 5 0
BBX 4 6 1 0
BITMAP
20
10
70
90
90
E0
ENDCHAR
STARTCHAR afii10070
ENCODING 1077
SWIDTH 500 0
DWIDTH 4 0
BBX 3 4 1 0
BITMAP
60
A0
E0
E0
ENDCHAR
STARTCHAR afii10072
ENCODING 1078
SWIDTH 750 0
DWIDTH 6 0
BBX 6 4 0 0
BITMAP
54
38
78
AC
ENDCHAR
STARTCHAR afii10073
ENCODING 1079
SWIDTH 625 0
DWIDTH 5 0
BBX 4 4 1 0
BITMAP
70
20
10
E0
ENDCHAR
STARTCHAR afii10074
ENCODING 1080
SWIDTH 625 0
DWIDTH 5 0
BBX 4 4 1 0
BITMAP
D0
90
A0
E0
ENDCHAR
STARTCHAR afii10075
ENCODING 1081
SWIDTH 625 0
DWIDTH 5 0
BBX 4 6 1 0
BITMAP
30
00
D0
90
A0
E0
ENDCHAR
STARTCHAR afii10076
ENCODING 1082
SWIDTH 625 0
DWIDTH 5 0
BBX 4 4 1 0
BITMAP
50
60
E0
B0
ENDCHAR
STARTCHAR afii10077
ENCODING 1083
SWIDTH 625 0
DWIDTH 5 0
BBX 5 4 0 0
BITMAP
38
28
50
90
ENDCHAR
STARTCHAR afii10078
ENCODING 1084
SWIDTH 875 0
DWIDTH 7 0
BBX 6 4 1 0
BITMAP
44
7C
A8
88
ENDCHAR
STARTCHAR afii10079
ENCODING 1085
SWIDTH 625 0
DWIDTH 5 0
BBX 4 4 1 0
BITMAP
50
70
A0
A0
ENDCHAR
STARTCHAR afii10080
ENCODING 1086
SWIDTH 625 0
DWIDTH 5 0
BBX 4 4 1 0
BITMAP
70
90
90
E0
ENDCHAR
STARTCHAR afii10081
ENCODING 1087
SWIDTH 625 0
DWIDTH 5 0
BBX 4 4 1 0
BITMAP
70
50
D0
90
ENDCHAR
STARTCHAR afii10082
ENCODING 1088
SWIDTH 625 0
DWIDTH 5 0
BBX 5 6 0 -2
BITMAP
78
68
48
70
80
80
ENDCHAR
STARTCHAR afii10083
ENCODING 1089
SWIDTH 500 0
DWIDTH 4 0
BBX 4 4 1 0
BITMAP
70
80
80
E0
ENDCHAR
STARTCHAR afii10084
ENCODING 1090
SWIDTH 875 0
DWIDTH 7 0
BBX 7 4 1 0
BITMAP
76
7A
D2
92
ENDCHAR
STARTCHAR afii10085
ENCODING 1091
SWIDTH 500 0
DWIDTH 4 0
BBX 4 7 1 -3
BITMAP
90
A0
60
40
40
40
80
ENDCHAR
STARTCHAR afii10086
ENCODING 1092
SWIDTH 875 0
DWIDTH 7 0
BBX 6 8 1 -2
BITMAP
10
10
7C
94
A4
F8
20
20
ENDCHAR
STARTCHAR afii10087
ENCODING 1093
SWIDTH 500 0
DWIDTH 4 0
BBX 4 4 1 0
BITMAP
90
60
40
A0
ENDCHAR
STARTCHAR afii10088
ENCODING 1094
SWIDTH 625 0
DWIDTH 5 0
BBX 4 5 1 -1
BITMAP
D0
90
A0
F0
10
ENDCHAR
STARTCHAR afii10089
ENCODING 1095
SWIDTH 625 0
DWIDTH 5 0
BBX 3 4 2 0
BITMAP
A0
A0
40
40
ENDCHAR
STARTCHAR afii10090
ENCODING 1096
SWIDTH 875 0
DWIDTH 7 0
BBX 7 4 1 0
BITMAP
52
92
B4
DC
ENDCHAR
STARTCHAR afii10091
ENCODING 1097
SWIDTH 875 0
DWIDTH 7 0
BBX 7 5 1 -1
BITMAP
52
92
B4
DE
02
ENDCHAR
STARTCHAR afii10092
ENCODING 1098
SWIDTH 500 0
DWIDTH 4 0
BBX 3 4 1 0
BITMAP
C0
60
A0
C0
ENDCHAR
STARTCHAR afii10093
ENCODING 1099
SWIDTH 875 0
DWIDTH 7 0
BBX 6 4 1 0
BITMAP
44
64
A8
C8
ENDCHAR
STARTCHAR afii10094
ENCODING 1100
SWIDTH 500 0
DWIDTH 4 0
BBX 3 4 1 0
BITMAP
40
60
A0
C0
ENDCHAR
STARTCHAR afii10095
ENCODING 1101
SWIDTH 625 0
DWIDTH 5 0
BBX 4 4 1 0
BITMAP
70
30
10
E0
ENDCHAR
STARTCHAR afii10096
ENCODING 1102
SWIDTH 875 0
DWIDTH 7 0
BBX 6 4 1 0
BITMAP
5C
64
A4
B8
ENDCHAR
STARTCHAR afii10097
ENCODING 1103
SWIDTH 500 0
DWIDTH 4 0
BBX 4 4 0 0
BITMAP
70
50
60
A0
ENDCHAR
STARTCHAR uni0450
ENCODING 1104
SWIDTH 529 0
DWIDTH 4 0
BBX 3 5 1 0
BITMAP
20
60
A0
E0
E0
ENDCHAR
STARTCHAR afii10071
ENCODING 1105
SWIDTH 500 0
DWIDTH 4 0
BBX 4 5 1 0
BITMAP
50
60
A0
E0
E0
ENDCHAR
STARTCHAR afii10099
ENCODING 1106
SWIDTH 625 0
DWIDTH 5 0
BBX 4 8 1 -2
BITMAP
40
E0
70
D0
D0
A0
20
40
ENDCHAR
STARTCHAR afii10100
ENCODING 1107
SWIDTH 500 0
DWIDTH 4 0
BBX 3 5 1 0
BITMAP
60
40
20
C0
E0
ENDCHAR
STARTCHAR afii10101
ENCODING 1108
SWIDTH 500 0
DWIDTH 4 0
BBX 4 4 1 0
BITMAP
70
E0
80
E0
ENDCHAR
STARTCHAR afii10102
ENCODING 1109
SWIDTH 489 0
DWIDTH 4 0
BBX 3 4 1 0
BITMAP
60
40
20
C0
ENDCHAR
STARTCHAR afii10103
ENCODING 1110
SWIDTH 289 0
DWIDTH 2 0
BBX 2 6 1 0
BITMAP
40
00
40
80
80
80
ENDCHAR
STARTCHAR afii10104
ENCODING 1111
SWIDTH 250 0
DWIDTH 2 0
BBX 3 6 1 0
BITMAP
A0
00
40
80
80
80
ENDCHAR
STARTCHAR afii10105
ENCODING 1112
SWIDTH 325 0
DWIDTH 3 0
BBX 4 8 0 -2
BITMAP
10
00
10
20
20
20
20
C0
ENDCHAR
STARTCHAR afii10106
ENCODING 1113
SWIDTH 750 0
DWIDTH 6 0
BBX 6 4 0 0
BITMAP
38
2C
54
98
ENDCHAR
STARTCHAR afii10107
ENCODING 1114
SWIDTH 750 0
DWIDTH 6 0
BBX 5 4 1 0
BITMAP
50
78
A8
B0
ENDCHAR
STARTCHAR afii10108
ENCODING 1115
SWIDTH 625 0
DWIDTH 5 0
BBX 4 6 1 0
BITMAP
40
E0
70
D0
D0
90
ENDCHAR
STARTCHAR afii10109
ENCODING 1116
SWIDTH 625 0
DWIDTH 5 0
BBX 4 5 1 0
BITMAP
30
50
60
E0
B0
ENDCHAR
STARTCHAR afii10110
ENCODING 1118
SWIDTH 500 0
DWIDTH 4 0
BBX 4 9 1 -3
BITMAP
60
00
90
A0
60
40
40
40
80
ENDCHAR
STARTCHAR afii10193
ENCODING 1119
SWIDTH 625 0
DWIDTH 5 0
BBX 4 5 1 -1
BITMAP
D0
90
A0
E0
40
ENDCHAR
STARTCHAR afii10146
ENCODING 1122
SWIDTH 625 0
DWIDTH 5 0
BBX 4 6 1 0
BITMAP
40
E0
60
90
90
E0
ENDCHAR
STARTCHAR afii10194
ENCODING 1123
SWIDTH 500 0
DWIDTH 4 0
BBX 3 6 1 0
BITMAP
40
40
E0
60
A0
C0
ENDCHAR
STARTCHAR afii10147
ENCODING 1138
SWIDTH 750 0
DWIDTH 6 0
BBX 6 6 1 0
BITMAP
38
44
FC
88
88
70
ENDCHAR
STARTCHAR afii10195
ENCODING 1139
SWIDTH 625 0
DWIDTH 5 0
BBX 4 4 1 0
BITMAP
70
F0
90
E0
ENDCHAR
STARTCHAR afii10148
ENCODING 1140
SWIDTH 625 0
DWIDTH 5 0
BBX 5 6 1 0
BITMAP
88
90
A0
A0
60
40
ENDCHAR
STARTCHAR afii10196
ENCODING 1141
SWIDTH 500 0
DWIDTH 4 0
BBX 4 4 1 0
BITMAP
90
A0
C0
C0
ENDCHAR
STARTCHAR afii10050
ENCODING 1168
SWIDTH 500 0
DWIDTH 4 0
BBX 4 7 1 0
BITMAP
10
70
40
40
80
80
80
ENDCHAR
STARTCHAR afii10098
ENCODING 1169
SWIDTH 625 0
DWIDTH 5 0
BBX 4 5 1 0
BITMAP
10
70
40
80
80
ENDCHAR
STARTCHAR uni04AA
ENCODING 1194
SWIDTH 679 0
DWIDTH 5 0
BBX 5 8 1 -2
BITMAP
38
40
80
80
80
70
40
40
ENDCHAR
STARTCHAR uni04AB
ENCODING 1195
SWIDTH 503 0
DWIDTH 4 0
BBX 4 6 1 -2
BITMAP
70
80
80
E0
40
40
ENDCHAR
STARTCHAR uni04AE
ENCODING 1198
SWIDTH 608 0
DWIDTH 5 0
BBX 5 6 1 0
BITMAP
88
50
60
40
40
40
ENDCHAR
STARTCHAR uni04C0
ENCODING 1216
SWIDTH 289 0
DWIDTH 2 0
BBX 2 6 1 0
BITMAP
40
40
40
80
80
80
ENDCHAR
STARTCHAR uni04D2
ENCODING 1234
SWIDTH 687 0
DWIDTH 5 0
BBX 5 7 0 0
BITMAP
18
10
30
30
48
78
88
ENDCHAR
STARTCHAR uni04D3
ENCODING 1235
SWIDTH 608 0
DWIDTH 5 0
BBX 4 5 1 0
BITMAP
30
70
90
A0
E0
ENDCHAR
STARTCHAR uni04D4
ENCODING 1236
SWIDTH 893 0
DWIDTH 7 0
BBX 8 6 0 0
BITMAP
0F
18
18
2E
78
8E
ENDCHAR
STARTCHAR uni04D5
ENCODING 1237
SWIDTH 893 0
DWIDTH 7 0
BBX 6 4 1 0
BITMAP
7C
94
BC
DC
ENDCHAR
STARTCHAR uni04E6
ENCODING 1254
SWIDTH 777 0
DWIDTH 6 0
BBX 6 7 1 0
BITMAP
30
38
4C
84
88
88
70
ENDCHAR
STARTCHAR uni04E7
ENCODING 1255
SWIDTH 566 0
DWIDTH 5 0
BBX 4 5 1 0
BITMAP
30
70
90
90
E0
ENDCHAR
STARTCHAR uni04E8
ENCODING 1256
SWIDTH 750 0
DWIDTH 6 0
BBX 6 6 1 0
BITMAP
38
44
FC
88
88
70
ENDCHAR
STARTCHAR uni04E9
ENCODING 1257
SWIDTH 625 0
DWIDTH 5 0
BBX 4 4 1 0
BITMAP
70
F0
90
E0
ENDCHAR
ENDFONT
